<svg width="1360" height="80" viewBox="0 0 1360 80" fill="none" xmlns="http://www.w3.org/2000/svg">
<rect width="1360" height="80" rx="12" fill="#286897"/>
<mask id="mask0_610_332" style="mask-type:alpha" maskUnits="userSpaceOnUse" x="0" y="0" width="1360" height="80">
<rect width="1360" height="80" rx="12" fill="#286897"/>
</mask>
<g mask="url(#mask0_610_332)">
<g filter="url(#filter0_f_610_332)">
<path fill-rule="evenodd" clip-rule="evenodd" d="M1243.22 0.010601C1246.61 -23.7406 1267.04 -42 1291.73 -42C1307.81 -42 1322.09 -34.2481 1331.02 -22.2761C1334.88 -23.5136 1339 -24.1818 1343.27 -24.1818C1365.41 -24.1818 1383.36 -6.23251 1383.36 15.9091C1383.36 38.0507 1365.41 56 1343.27 56H1291.73H1244H1240.18V55.7418C1226.52 53.8796 1216 42.1688 1216 28C1216 12.7962 1228.12 0.422672 1243.22 0.010601Z" fill="#558CB4" fill-opacity="0.6"/>
</g>
<g filter="url(#filter1_f_610_332)">
<path fill-rule="evenodd" clip-rule="evenodd" d="M1192.22 54.0106C1195.61 30.2594 1216.04 12 1240.73 12C1256.81 12 1271.09 19.7519 1280.02 31.7239C1283.88 30.4864 1288 29.8182 1292.27 29.8182C1314.41 29.8182 1332.36 47.7675 1332.36 69.9091C1332.36 92.0507 1314.41 110 1292.27 110H1240.73H1193H1189.18V109.742C1175.52 107.88 1165 96.1688 1165 82C1165 66.7962 1177.12 54.4227 1192.22 54.0106Z" fill="#558CB4" fill-opacity="0.6"/>
</g>
</g>
<path d="M33.532 51V45.564H37.6V42.036H33.532V26.88H29.248L17.44 42.432V45.564H29.5V51H33.532ZM21.904 42.036L29.5 32.136V42.036H21.904ZM49.3453 51.36C54.5293 51.36 58.0933 47.868 58.0933 43.008C58.0933 38.652 55.8973 35.268 51.0373 35.268C47.3293 35.268 44.8813 37.392 44.3773 40.956V38.652C44.3773 32.244 46.8253 30.516 49.6333 30.516C52.0453 30.516 53.8093 31.848 54.8893 34.008L57.6613 30.66C56.1493 28.212 53.4133 26.52 49.8493 26.52C43.4053 26.52 39.9853 30.912 39.9853 38.652V39.048C39.9853 48.012 43.5493 51.36 49.3453 51.36ZM49.2373 47.508C46.3573 47.508 44.6653 45.96 44.6653 42.648C44.6653 39.912 46.4653 38.436 49.3093 38.436C52.3693 38.436 53.7373 40.272 53.7373 43.008C53.7373 45.564 52.0453 47.508 49.2373 47.508ZM64.6613 32.208C66.3533 32.208 67.6853 30.984 67.6853 29.184C67.6853 27.42 66.3533 26.16 64.6613 26.16C63.0053 26.16 61.6733 27.42 61.6733 29.184C61.6733 30.984 63.0053 32.208 64.6613 32.208ZM64.6613 30.66C63.8693 30.66 63.3293 30.084 63.3293 29.184C63.3293 28.284 63.8693 27.708 64.6613 27.708C65.4893 27.708 66.0293 28.284 66.0293 29.184C66.0293 30.084 65.4893 30.66 64.6613 30.66Z" fill="white"/>
<defs>
<filter id="filter0_f_610_332" x="1212" y="-46" width="175.364" height="106" filterUnits="userSpaceOnUse" color-interpolation-filters="sRGB">
<feFlood flood-opacity="0" result="BackgroundImageFix"/>
<feBlend mode="normal" in="SourceGraphic" in2="BackgroundImageFix" result="shape"/>
<feGaussianBlur stdDeviation="2" result="effect1_foregroundBlur_610_332"/>
</filter>
<filter id="filter1_f_610_332" x="1161" y="8" width="175.364" height="106" filterUnits="userSpaceOnUse" color-interpolation-filters="sRGB">
<feFlood flood-opacity="0" result="BackgroundImageFix"/>
<feBlend mode="normal" in="SourceGraphic" in2="BackgroundImageFix" result="shape"/>
<feGaussianBlur stdDeviation="2" result="effect1_foregroundBlur_610_332"/>
</filter>
</defs>
</svg>
