<svg width="1360" height="80" viewBox="0 0 1360 80" fill="none" xmlns="http://www.w3.org/2000/svg">
<rect width="1360" height="80" rx="12" fill="#6CA6C7"/>
<mask id="mask0_610_158" style="mask-type:alpha" maskUnits="userSpaceOnUse" x="0" y="0" width="1360" height="80">
<rect width="1360" height="80" rx="12" fill="#00A3FF"/>
</mask>
<g mask="url(#mask0_610_158)">
<path d="M1219.5 59.5L1209 75.5" stroke="url(#paint0_linear_610_158)" stroke-opacity="0.3" stroke-width="2" stroke-linecap="round"/>
<path d="M1247 49L1236.5 65" stroke="url(#paint1_linear_610_158)" stroke-opacity="0.3" stroke-width="2" stroke-linecap="round"/>
<path d="M1266 60L1255.5 76" stroke="url(#paint2_linear_610_158)" stroke-opacity="0.3" stroke-width="2" stroke-linecap="round"/>
<path d="M1294 49L1283.5 65" stroke="url(#paint3_linear_610_158)" stroke-opacity="0.3" stroke-width="2" stroke-linecap="round"/>
<path d="M1318 61L1307.5 77" stroke="url(#paint4_linear_610_158)" stroke-opacity="0.3" stroke-width="2" stroke-linecap="round"/>
<path d="M1346 48L1335.5 64" stroke="url(#paint5_linear_610_158)" stroke-opacity="0.3" stroke-width="2" stroke-linecap="round"/>
<path d="M1269 47L1276.5 36H1287L1282.5 42H1291.5L1270 60.5L1278 47H1269Z" fill="url(#paint6_linear_610_158)"/>
<path d="M1210.5 50.5L1200 66.5" stroke="url(#paint7_linear_610_158)" stroke-opacity="0.3" stroke-width="2" stroke-linecap="round"/>
<path d="M1218 74L1207.5 90" stroke="white" stroke-opacity="0.3" stroke-width="2" stroke-linecap="round"/>
<path d="M1238 40L1227.5 56" stroke="url(#paint8_linear_610_158)" stroke-opacity="0.3" stroke-width="2" stroke-linecap="round"/>
<path d="M1257 51L1246.5 67" stroke="url(#paint9_linear_610_158)" stroke-opacity="0.3" stroke-width="2" stroke-linecap="round"/>
<path d="M1264.5 74.5L1254 90.5" stroke="white" stroke-opacity="0.3" stroke-width="2" stroke-linecap="round"/>
<path d="M1285 40L1274.5 56" stroke="url(#paint10_linear_610_158)" stroke-opacity="0.3" stroke-width="2" stroke-linecap="round"/>
<path d="M1309 52L1298.5 68" stroke="url(#paint11_linear_610_158)" stroke-opacity="0.3" stroke-width="2" stroke-linecap="round"/>
<path d="M1316.5 75.5L1306 91.5" stroke="white" stroke-opacity="0.3" stroke-width="2" stroke-linecap="round"/>
<path d="M1337 39L1326.5 55" stroke="url(#paint12_linear_610_158)" stroke-opacity="0.3" stroke-width="2" stroke-linecap="round"/>
<path fill-rule="evenodd" clip-rule="evenodd" d="M1238.22 -15.9894C1241.61 -39.7406 1262.04 -58 1286.73 -58C1302.81 -58 1317.09 -50.2481 1326.02 -38.2761C1329.88 -39.5136 1334 -40.1818 1338.27 -40.1818C1360.41 -40.1818 1378.36 -22.2325 1378.36 -0.0909119C1378.36 22.0507 1360.41 40 1338.27 40H1286.73H1239H1235.18V39.7418C1221.52 37.8796 1211 26.1688 1211 12C1211 -3.20379 1223.12 -15.5773 1238.22 -15.9894Z" fill="#B4B4B4"/>
</g>
<path d="M25.072 51C25.072 40.92 28.528 35.808 33.352 31.056V26.88H16.9V30.624H29.536C25.756 34.368 20.608 39.732 20.608 51H25.072ZM44.4721 51.36C49.9441 51.36 53.3641 48.048 53.3641 43.08C53.3641 38.292 50.7001 35.196 46.1281 35.196C42.9241 35.196 40.9801 36.924 40.2241 39.084L40.8001 30.624H51.5641V26.88H36.9121L36.1201 40.596L40.0801 40.992L40.1161 40.668C40.3321 39.12 41.9521 38.148 44.2561 38.148C46.7401 38.148 49.0081 39.516 49.0081 42.9C49.0081 45.708 47.4241 47.436 44.5081 47.436C41.4121 47.436 39.2881 45.636 38.4601 42.648L35.2201 45.78C36.4441 48.912 39.8641 51.36 44.4721 51.36ZM59.8098 32.208C61.5018 32.208 62.8338 30.984 62.8338 29.184C62.8338 27.42 61.5018 26.16 59.8098 26.16C58.1538 26.16 56.8218 27.42 56.8218 29.184C56.8218 30.984 58.1538 32.208 59.8098 32.208ZM59.8098 30.66C59.0178 30.66 58.4778 30.084 58.4778 29.184C58.4778 28.284 59.0178 27.708 59.8098 27.708C60.6378 27.708 61.1778 28.284 61.1778 29.184C61.1778 30.084 60.6378 30.66 59.8098 30.66Z" fill="white"/>
<defs>
<linearGradient id="paint0_linear_610_158" x1="1214.25" y1="59.5" x2="1214.25" y2="75.5" gradientUnits="userSpaceOnUse">
<stop stop-color="white" stop-opacity="0"/>
<stop offset="0.895833" stop-color="white"/>
</linearGradient>
<linearGradient id="paint1_linear_610_158" x1="1241.75" y1="49" x2="1241.75" y2="65" gradientUnits="userSpaceOnUse">
<stop stop-color="white" stop-opacity="0"/>
<stop offset="0.895833" stop-color="white"/>
</linearGradient>
<linearGradient id="paint2_linear_610_158" x1="1260.75" y1="60" x2="1260.75" y2="76" gradientUnits="userSpaceOnUse">
<stop stop-color="white" stop-opacity="0"/>
<stop offset="0.895833" stop-color="white"/>
</linearGradient>
<linearGradient id="paint3_linear_610_158" x1="1288.75" y1="49" x2="1288.75" y2="65" gradientUnits="userSpaceOnUse">
<stop stop-color="white" stop-opacity="0"/>
<stop offset="0.895833" stop-color="white"/>
</linearGradient>
<linearGradient id="paint4_linear_610_158" x1="1312.75" y1="61" x2="1312.75" y2="77" gradientUnits="userSpaceOnUse">
<stop stop-color="white" stop-opacity="0"/>
<stop offset="0.895833" stop-color="white"/>
</linearGradient>
<linearGradient id="paint5_linear_610_158" x1="1340.75" y1="48" x2="1340.75" y2="64" gradientUnits="userSpaceOnUse">
<stop stop-color="white" stop-opacity="0"/>
<stop offset="0.895833" stop-color="white"/>
</linearGradient>
<linearGradient id="paint6_linear_610_158" x1="1280" y1="36" x2="1280" y2="43" gradientUnits="userSpaceOnUse">
<stop stop-color="#FFE600" stop-opacity="0"/>
<stop offset="1" stop-color="#FFE600"/>
</linearGradient>
<linearGradient id="paint7_linear_610_158" x1="1205.25" y1="50.5" x2="1205.25" y2="66.5" gradientUnits="userSpaceOnUse">
<stop stop-color="white" stop-opacity="0"/>
<stop offset="0.895833" stop-color="white"/>
</linearGradient>
<linearGradient id="paint8_linear_610_158" x1="1232.75" y1="40" x2="1232.75" y2="56" gradientUnits="userSpaceOnUse">
<stop stop-color="white" stop-opacity="0"/>
<stop offset="0.895833" stop-color="white"/>
</linearGradient>
<linearGradient id="paint9_linear_610_158" x1="1251.75" y1="51" x2="1251.75" y2="67" gradientUnits="userSpaceOnUse">
<stop stop-color="white" stop-opacity="0"/>
<stop offset="0.895833" stop-color="white"/>
</linearGradient>
<linearGradient id="paint10_linear_610_158" x1="1279.75" y1="40" x2="1279.75" y2="56" gradientUnits="userSpaceOnUse">
<stop stop-color="white" stop-opacity="0"/>
<stop offset="0.895833" stop-color="white"/>
</linearGradient>
<linearGradient id="paint11_linear_610_158" x1="1303.75" y1="52" x2="1303.75" y2="68" gradientUnits="userSpaceOnUse">
<stop stop-color="white" stop-opacity="0"/>
<stop offset="0.895833" stop-color="white"/>
</linearGradient>
<linearGradient id="paint12_linear_610_158" x1="1331.75" y1="39" x2="1331.75" y2="55" gradientUnits="userSpaceOnUse">
<stop stop-color="white" stop-opacity="0"/>
<stop offset="0.895833" stop-color="white"/>
</linearGradient>
</defs>
</svg>
